<svg xmlns="http://www.w3.org/2000/svg" viewBox="0 0 17.95 16.29"><defs><style>.cls-1{fill:#84bd41;}</style></defs><title>zakat</title><g id="Layer_2" data-name="Layer 2"><g id="Layer_1-2" data-name="Layer 1"><path class="cls-1" d="M13.44,0a.57.57,0,0,1,.4.57.71.71,0,0,1-.13.34,14.18,14.18,0,0,0-1.49,2.33.18.18,0,0,1-.19.11H5.86a.22.22,0,0,1-.22-.14A14.31,14.31,0,0,0,4.22,1C3.89.58,4,.26,4.42,0h.29L5,.23a1,1,0,0,0,1.26,0C6.4.14,6.52.08,6.64,0h.22c.11.08.23.14.35.23a1,1,0,0,0,1.26,0L8.79,0h.29L9.4.23a1,1,0,0,0,1.26,0c.11-.09.23-.15.35-.23h.22l.34.22a.91.91,0,0,0,.86.18,5.27,5.27,0,0,0,.73-.4Z"/><path class="cls-1" d="M16.2,13.05a.25.25,0,0,1-.17-.29,6.8,6.8,0,0,0-.39-2.53A13.45,13.45,0,0,0,14.3,7.58c-.69-1.11-1.44-2.18-2-3.35a.24.24,0,0,0-.17-.09H5.74a.2.2,0,0,0-.2.13c-.17.33-.33.66-.52,1-.61,1-1.24,2-1.85,3A8.65,8.65,0,0,0,1.85,12a2.21,2.21,0,0,0,.87,4.23,2.32,2.32,0,0,0,.64-.11H15.74l.12,0a1.63,1.63,0,0,0,.34-3.06ZM6.71,11.87H5.52c-.44,0-.48-.24-.48-.35A1.31,1.31,0,0,1,5.12,11a1.67,1.67,0,0,1,.26-.49A3.06,3.06,0,0,1,5.85,10l.26-.27a1.88,1.88,0,0,0,.18-.24.29.29,0,0,0,.06-.16.34.34,0,0,0,0-.2.21.21,0,0,0-.16-.05A.14.14,0,0,0,6,9.22a.87.87,0,0,1-.15.27.41.41,0,0,1-.33.13.46.46,0,0,1-.34-.14.44.44,0,0,1-.08-.39,1.12,1.12,0,0,1,.38-.64,1,1,0,0,1,.67-.23,1.2,1.2,0,0,1,.57.14,1.05,1.05,0,0,1,.41.4,1.12,1.12,0,0,1,.14.62,1.21,1.21,0,0,1-.12.48,2.07,2.07,0,0,1-.28.4l-.38.38L6.13,11h.58c.3,0,.48.16.48.43A.43.43,0,0,1,6.71,11.87Zm1.7.31a1.35,1.35,0,0,1-.39.36.49.49,0,0,1-.27.08H7.69a.31.31,0,0,1-.25-.17.25.25,0,0,1,0-.33,1.31,1.31,0,0,1,.2-.17l.06,0a.48.48,0,0,1-.34-.14.46.46,0,0,1-.16-.38A.48.48,0,0,1,7.44,11a.64.64,0,0,1,.38-.12.71.71,0,0,1,.54.23.88.88,0,0,1,.2.57A.9.9,0,0,1,8.41,12.18Zm2.12-.62a1.22,1.22,0,0,1-.88.34,1.27,1.27,0,0,1-.47-.09,1.3,1.3,0,0,1-.39-.25.41.41,0,0,1-.16-.37.45.45,0,0,1,.21-.31.42.42,0,0,1,.35-.07.87.87,0,0,1,.27.14l.09.05h.1c.17,0,.22-.06.23-.08a.4.4,0,0,0,.08-.29c0-.21,0-.28-.06-.3a.18.18,0,0,0-.15-.06l-.13,0-.15.09a.49.49,0,0,1-.3.09A.44.44,0,0,1,8.71,10V8.74a.45.45,0,0,1,.49-.49h1.07c.3,0,.48.16.48.43s-.18.43-.48.43H9.62v.32h.15a1,1,0,0,1,.55.14.93.93,0,0,1,.4.41,1.36,1.36,0,0,1,.15.67A1.21,1.21,0,0,1,10.53,11.56Zm.67-2.63a.46.46,0,1,1,.92,0,.47.47,0,0,1-.47.46A.48.48,0,0,1,11.2,8.93Zm.45,1.82h-.09l-.07,0a.18.18,0,0,1,0-.25l.73-1,.72-.94a.24.24,0,0,1,.13-.09.15.15,0,0,1,.17.08.17.17,0,0,1,0,.2l-.35.46-1.09,1.43A.47.47,0,0,1,11.65,10.75Zm1.49,0,0,0H13a.57.57,0,0,1-.27-.16.47.47,0,0,1-.06-.52.48.48,0,0,1,.49-.23.46.46,0,0,1,.36.38A.44.44,0,0,1,13.14,10.74Z"/><circle class="cls-1" cx="2.28" cy="14.01" r="2.28"/><circle class="cls-1" cx="15.67" cy="14.01" r="2.28"/></g></g></svg>