<svg xmlns="http://www.w3.org/2000/svg" viewBox="0 0 15.03 17.28"><defs><style>.cls-1{fill:#84bd41;}</style></defs><title>donasi</title><g id="Layer_2" data-name="Layer 2"><g id="Layer_1-2" data-name="Layer 1"><path class="cls-1" d="M15,13.66c0,1.14-1.2,2.39-2.21,3.24a1.25,1.25,0,0,1-1.32.17,1.22,1.22,0,0,1-.29-.17c-.2-.18-.42-.37-.63-.57A4.31,4.31,0,0,1,9,13.66a1.7,1.7,0,0,1,1.63-1.77,1.59,1.59,0,0,1,1.39.83,1.53,1.53,0,0,1,.38-.46,1.56,1.56,0,0,1,1-.37h.15A1.7,1.7,0,0,1,15,13.66Z"/><path class="cls-1" d="M13,1.72A1.58,1.58,0,0,0,12.11.17,1.83,1.83,0,0,0,11.34,0C8.12,0,4.91,0,1.69,0A1.62,1.62,0,0,0,0,1.69Q0,8.64,0,15.6A1.6,1.6,0,0,0,1.7,17.27H9.87a5.68,5.68,0,0,1-2-3.68,2.85,2.85,0,0,1,2.71-2.94h0a2.78,2.78,0,0,1,1.9.82,2.61,2.61,0,0,1,.52-.41C13,8.74,13,3.59,13,1.72ZM1.68,3.29a.76.76,0,0,1,.8-.44A1.41,1.41,0,0,1,3,3.11c.24.2.45.42.68.64L4.92,2.24l.44-.52a.8.8,0,1,1,1.23,1C6,3.48,5.38,4.22,4.77,5A1.4,1.4,0,0,1,2.62,5c-.27-.27-.54-.54-.8-.82A.81.81,0,0,1,1.68,3.29ZM1.83,8A.82.82,0,0,1,3,8l.65.63,1.65-2a.8.8,0,1,1,1.27,1c-.39.48-.77.94-1.16,1.4-.21.26-.42.52-.64.77a1.4,1.4,0,0,1-2.19.08l-.73-.74A.82.82,0,0,1,1.83,8ZM6.59,12.5,5.43,13.9l-.64.77a1.4,1.4,0,0,1-2.19.08L1.87,14A.81.81,0,1,1,3,12.88l.66.62,1.64-2a.83.83,0,0,1,1-.31A.81.81,0,0,1,6.59,12.5Zm4.05-2.42H8.28a.8.8,0,0,1-.8-.82.79.79,0,0,1,.8-.78h2.36a.79.79,0,0,1,.8.8A.8.8,0,0,1,10.64,10.08Zm0-4.92H8.3a.8.8,0,1,1,0-1.6h2.33a.8.8,0,1,1,0,1.6Z"/></g></g></svg>