<?xml version="1.0" encoding="utf-8"?>
<!-- Generator: Adobe Illustrator 24.2.0, SVG Export Plug-In . SVG Version: 6.00 Build 0)  -->
<svg version="1.1" id="Layer_1" xmlns="http://www.w3.org/2000/svg" xmlns:xlink="http://www.w3.org/1999/xlink" x="0px" y="0px"
	 viewBox="0 0 18 16.6" style="enable-background:new 0 0 18 16.6;" xml:space="preserve">
<style type="text/css">
	.st0{display:none;}
	.st1{display:inline;}
	.st2{fill:#84BD41;}
	.st3{fill:#85BD41;}
</style>
<g id="Layer_2_1_" class="st0">
	<g id="Layer_1-2" class="st1">
		<path class="st2" d="M16.7,13c0,1.1-1.2,2.4-2.2,3.2c-0.4,0.3-0.9,0.4-1.3,0.2c-0.1,0-0.2-0.1-0.3-0.2c-0.2-0.2-0.4-0.4-0.6-0.6
			c-0.8-0.7-1.4-1.6-1.6-2.7c0-0.9,0.7-1.7,1.6-1.8l0,0c0.6,0,1.1,0.3,1.4,0.8c0.1-0.2,0.2-0.3,0.4-0.5c0.3-0.2,0.6-0.4,1-0.4h0.1
			C16.1,11.3,16.7,12.1,16.7,13z"/>
		<path class="st2" d="M14.7,1c0.1-0.7-0.3-1.3-0.9-1.6c-0.2,0-0.5-0.1-0.8-0.1c-3.2,0-6.4,0-9.6,0C2.5-0.7,1.7,0,1.7,0.8v0.1
			c0,4.7,0,9.4,0,14c0,0.9,0.6,1.6,1.5,1.7c0.1,0,0.1,0,0.2,0h8.2c-1.1-0.9-1.8-2.2-2-3.7c-0.1-1.6,1.1-2.9,2.7-3l0,0
			c0.7,0,1.4,0.3,1.9,0.8c0.2-0.2,0.3-0.3,0.5-0.4C14.7,8,14.7,2.9,14.7,1z M3.4,2.6c0.1-0.3,0.4-0.5,0.8-0.5
			c0.2,0.1,0.3,0.2,0.5,0.3C4.9,2.6,5.2,2.8,5.4,3l1.2-1.5L7,1c0.2-0.4,0.7-0.5,1.1-0.3C8.5,1,8.7,1.5,8.4,1.9C8.4,2,8.3,2,8.3,2.1
			C7.7,2.8,7.1,3.5,6.5,4.3C6,4.9,5.1,5,4.5,4.5C4.4,4.4,4.4,4.4,4.3,4.3C4,4,3.8,3.8,3.5,3.5C3.3,3.2,3.2,2.9,3.4,2.6z M3.5,7.3
			C3.8,7,4.4,7,4.7,7.3l0,0l0.7,0.6l1.7-2c0.3-0.4,0.8-0.4,1.1-0.1c0.4,0.3,0.4,0.8,0.1,1.1l0,0c-0.4,0.5-0.8,1-1.2,1.4
			C6.9,8.6,6.7,8.8,6.5,9.1C6,9.7,5.2,9.9,4.5,9.4C4.4,9.3,4.3,9.3,4.3,9.2L3.6,8.4C3.2,8.1,3.2,7.6,3.5,7.3z M8.3,11.8l-1.2,1.4
			L6.5,14c-0.5,0.6-1.3,0.8-2,0.3c-0.1-0.1-0.2-0.1-0.2-0.2l-0.7-0.8c-0.4-0.3-0.5-0.8-0.2-1.1c0.3-0.4,0.8-0.5,1.1-0.2
			c0.1,0.1,0.2,0.1,0.2,0.2l0.7,0.6l1.6-2c0.2-0.3,0.6-0.5,1-0.3c0.4,0.2,0.6,0.6,0.5,1.1C8.4,11.6,8.4,11.7,8.3,11.8z M12.3,9.4H10
			C9.6,9.4,9.2,9,9.2,8.6l0,0c0-0.4,0.4-0.8,0.8-0.8l0,0h2.4c0.4,0,0.8,0.3,0.8,0.8l0,0C13.1,9,12.8,9.4,12.3,9.4z M12.3,4.5H10
			c-0.4,0-0.8-0.4-0.8-0.8S9.6,2.9,10,2.9l0,0h2.3c0.4,0,0.8,0.4,0.8,0.8S12.8,4.5,12.3,4.5L12.3,4.5L12.3,4.5z"/>
	</g>
</g>
<g class="st0">
	<g class="st1">
		<path class="st3" d="M14.6,5.3c0.3,0.1,0.5,0.4,0.5,0.7c0,0.2,0,0.4,0,0.6c0,0.4-0.2,0.7-0.7,0.7c-3.5,0-6.9,0-10.4,0
			c-0.4,0-0.6-0.2-0.6-0.6c0-0.2,0-0.4,0-0.6c0-0.4,0.1-0.6,0.5-0.7C7.4,5.3,11,5.3,14.6,5.3z"/>
		<path class="st3" d="M15.1,14.2c0,1.3-1.1,2.4-2.5,2.4H5.8c-1.4,0-2.5-1.1-2.5-2.4v-3.7c0-1.3,1.1-2.4,2.5-2.4h6.8
			c1.4,0,2.5,1.1,2.5,2.4V14.2L15.1,14.2z"/>
	</g>
	<g class="st1">
		<path class="st3" d="M10.6-4.7c1,0,1.9,0,2.9,0c0,0.2-0.1,0.4-0.1,0.5s0,0.2,0,0.2c0,0.6,0,1.2-0.2,1.8C13-1.8,12.8-1.4,12.6-1
			c-0.2,0.3-0.3,0.6-0.5,0.9c-0.1,0.2-0.2,0.4-0.3,0.6c-0.3,1-0.8,1.8-1.4,2.5c-0.1,0.2-0.3,0.3-0.5,0.5c-0.2,0.1-0.4,0.1-0.5,0
			C9.2,3.3,9.2,3.1,9.3,2.9c0.1-0.3,0.3-0.6,0.5-0.8c0.4-0.5,0.6-1,0.8-1.6c0.1-0.3,0.2-0.6,0.1-1v-0.1c0-0.1-0.1-0.1-0.2-0.2
			C10.1-0.9,9.6-1,9.2-1.2C9.1-1.2,9-1.2,9-1.1C8.7-0.9,8.5-0.7,8.3-0.4c0,0-0.1,0.1-0.1,0.2c0,0.3,0,0.6,0,0.9c0,0.1,0,0.1,0.1,0.2
			c0.3,0.3,0.5,0.6,0.8,0.9c0,0,0,0-0.1,0.1c-0.1,0-0.2,0-0.2,0.1C8.6,1.9,8.5,2,8.3,2.1C8,1.7,7.7,1.3,7.4,1V0.9
			c0-0.6,0-1.2,0.1-1.9c0-0.1,0-0.1,0.1-0.1c1-1.1,2-2.2,3-3.3C10.6-4.6,10.6-4.6,10.6-4.7z"/>
		<path class="st3" d="M10.8,3.1c0.2,0.3,0.2,0.7,0.1,1c-0.1,0.3-0.3,0.6-0.5,0.8c0,0-0.1,0.1-0.2,0.1C9.7,5,9.3,5,8.8,5H8.7
			C8.2,4.6,8,4.1,8.1,3.5c0.1-0.6,0.4-1,1-1.2c0,0,0,0,0.1,0C9.1,2.4,9,2.6,9,2.7C8.8,2.9,8.8,3.2,8.9,3.5c0.2,0.4,0.6,0.6,1,0.4
			c0.3-0.1,0.5-0.4,0.8-0.6C10.7,3.2,10.8,3.2,10.8,3.1z"/>
		<path class="st3" d="M8.9-0.5c0,0.2,0,0.4,0.1,0.6c0,0.1,0,0.2,0.1,0.3c0.2,0.2,0.5,0.5,0.7,0.8c0,0,0.1,0.1,0,0.1
			c0,0.1-0.1,0.2-0.2,0.3c0,0-0.1,0.1-0.1,0C9.3,1.3,9,1,8.7,0.6V0.5c0-0.2,0-0.4,0-0.6c0-0.1,0-0.1,0-0.1C8.8-0.3,8.8-0.4,8.9-0.5z
			"/>
		<path class="st3" d="M8.3,2.1C8.5,2,8.6,1.9,8.8,1.9C8.9,1.9,9,1.8,9,1.8s0.1,0,0.1-0.1c0.1,0.1,0.1,0.1,0.2,0.2
			C9.1,1.9,9,2,8.9,2C8.7,2.1,8.6,2.1,8.6,2.2C8.5,2.2,8.4,2.2,8.3,2.1C8.4,2.1,8.4,2.1,8.3,2.1z"/>
	</g>
</g>
<g>
	<path class="st2" d="M13.5,0.2c0.2,0.1,0.4,0.3,0.4,0.6c0,0.1-0.1,0.3-0.1,0.3c-0.6,0.7-1.1,1.5-1.5,2.3c0,0.1-0.1,0.1-0.2,0.1
		c-2.1,0-4.1,0-6.2,0c-0.1,0.1-0.2,0-0.2-0.1C5.3,2.7,4.8,1.9,4.3,1.2C4,0.8,4,0.5,4.5,0.2c0.1,0,0.2,0,0.3,0C4.9,0.3,5,0.4,5.1,0.5
		c0.4,0.3,0.9,0.3,1.3,0c0-0.1,0.2-0.2,0.3-0.3c0.1,0,0.1,0,0.2,0C7,0.3,7.1,0.4,7.2,0.4c0.4,0.3,0.9,0.3,1.3,0
		c0.1,0,0.2-0.1,0.3-0.2c0.1,0,0.2,0,0.3,0c0.1,0.1,0.2,0.2,0.3,0.3c0.4,0.3,0.9,0.3,1.3,0c0.1-0.1,0.2-0.2,0.4-0.3
		c0.1,0,0.1,0,0.2,0c0.1,0.1,0.2,0.2,0.3,0.2c0.3,0.2,0.6,0.3,0.9,0.2c0.3-0.1,0.5-0.3,0.7-0.4C13.3,0.2,13.4,0.2,13.5,0.2z"/>
	<g>
		<path class="st2" d="M16.2,13.3C16.1,13.2,16,13.2,16,13c0-0.9-0.1-1.7-0.4-2.5c-0.3-0.9-0.8-1.8-1.3-2.7c-0.7-1.1-1.4-2.2-2-3.3
			c0,0-0.1-0.1-0.2-0.1c-2.1,0-4.2,0-6.4,0c-0.1,0-0.2,0-0.2,0.1C5.3,4.8,5.2,5.2,5,5.5c-0.6,1-1.2,2-1.8,3C2.5,9.7,2,10.9,1.9,12.3
			c-0.8,0.3-1.3,1.1-1.3,2c0,1.2,1,2.2,2.2,2.2c0.2,0,0.4,0,0.6-0.1c4.1,0,8.3,0,12.4,0h0.1c0.7-0.2,1.2-0.7,1.3-1.4
			C17.2,14.2,16.9,13.6,16.2,13.3z M6.7,12.1H5.6c-0.4,0-0.5-0.2-0.5-0.3c0-0.2,0-0.3,0.1-0.5s0.1-0.3,0.3-0.5
			c0.1-0.2,0.3-0.3,0.5-0.5c0.1-0.1,0.2-0.2,0.3-0.3c0.1-0.1,0.1-0.2,0.2-0.2c0-0.1,0.1-0.1,0.1-0.2c0-0.1,0-0.2,0-0.2
			s0-0.1-0.2-0.1c-0.1,0-0.1,0-0.1,0.1S6.2,9.6,6.2,9.7C6.1,9.8,6,9.8,5.9,9.8c-0.1,0-0.3,0-0.3-0.1C5.5,9.6,5.5,9.5,5.5,9.3
			C5.6,9,5.7,8.8,5.9,8.7c-0.2-0.2,0-0.3,0.3-0.3c0.2,0,0.4,0,0.6,0.1s0.3,0.2,0.4,0.4s0.1,0.4,0.1,0.6c0,0.2,0,0.3-0.1,0.5
			c-0.1,0.1-0.2,0.3-0.3,0.4c-0.1,0.1-0.2,0.2-0.4,0.4c-0.1,0.1-0.2,0.3-0.3,0.4h0.6c0.3,0,0.5,0.2,0.5,0.4
			C7.2,11.9,7.1,12.1,6.7,12.1z M8.5,12.4c-0.1,0.1-0.2,0.3-0.4,0.4c-0.1,0.1-0.2,0.1-0.3,0.1c0,0,0,0-0.1,0s-0.2-0.1-0.3-0.2
			c-0.1-0.1,0-0.2,0.1-0.3c0,0,0.1-0.1,0.2-0.2c0,0,0,0,0.1,0c-0.1,0-0.2-0.1-0.3-0.1c-0.1-0.1-0.2-0.2-0.2-0.4s0.1-0.3,0.2-0.4
			c0.1-0.1,0.2-0.1,0.4-0.1s0.4,0.1,0.5,0.2c0.1,0.2,0.2,0.3,0.2,0.6C8.6,12.1,8.6,12.3,8.5,12.4z M10.6,11.8
			c-0.2,0.2-0.5,0.3-0.9,0.3c-0.2,0-0.3,0-0.5-0.1c-0.1-0.1-0.3-0.1-0.4-0.2c-0.1-0.2-0.1-0.3-0.1-0.4c0-0.1,0-0.2,0.2-0.3
			C9,11,9.1,11,9.3,11c0.1,0,0.2,0.1,0.3,0.1h0.1h0.1C10,11.1,10,11,10,11c0.1-0.1,0.1-0.2,0.1-0.3c0-0.2,0-0.3-0.1-0.3l-0.1-0.1
			H9.8c-0.1,0-0.1,0.1-0.2,0.1c-0.1,0.1-0.2,0.1-0.3,0.1c-0.3,0-0.5-0.2-0.5-0.5V9c0-0.3,0.2-0.5,0.5-0.5h1.1c0.3,0,0.5,0.2,0.5,0.4
			c0,0.3-0.2,0.4-0.5,0.4H9.7v0.3h0.1c0.2,0,0.4,0,0.6,0.1c0.2,0.1,0.3,0.2,0.4,0.4c0.1,0.2,0.1,0.4,0.1,0.7
			C10.9,11.3,10.8,11.6,10.6,11.8z M11.2,9.1c0-0.3,0.2-0.5,0.5-0.5s0.5,0.2,0.5,0.5S12,9.6,11.7,9.6C11.5,9.6,11.2,9.4,11.2,9.1z
			 M11.7,11C11.7,11,11.6,11,11.7,11c-0.1,0-0.1,0-0.2,0c-0.1-0.1-0.1-0.2,0-0.2c0.2-0.3,0.5-0.6,0.7-1c0.2-0.3,0.5-0.6,0.7-0.9
			L13,8.8c0.1,0,0.1,0,0.2,0.1c0,0.1,0,0.1,0,0.2c-0.1,0.2-0.2,0.3-0.4,0.5C12.4,10.1,12.1,10.6,11.7,11
			C11.8,10.9,11.7,10.9,11.7,11z M13.2,11L13.2,11c-0.1,0-0.1,0-0.2,0c-0.1,0-0.2-0.1-0.3-0.2c-0.1-0.1-0.1-0.4-0.1-0.5
			c0.1-0.2,0.3-0.3,0.5-0.2c0.2,0,0.3,0.2,0.4,0.4C13.6,10.7,13.4,10.9,13.2,11z"/>
		<circle class="st2" cx="2.3" cy="14.2" r="2.3"/>
		<circle class="st2" cx="15.7" cy="14.2" r="2.3"/>
	</g>
</g>
</svg>
