<svg xmlns="http://www.w3.org/2000/svg" viewBox="0 0 16.8 30.53"><defs><style>.cls-1{fill:#85bd41;}</style></defs><title>sedekah</title><g id="Layer_2" data-name="Layer 2"><g id="Layer_1-2" data-name="Layer 1"><path class="cls-1" d="M16.15,14.42a1,1,0,0,1,.65,1.07c0,.28,0,.57,0,.86a.86.86,0,0,1-.95.94H1A.86.86,0,0,1,0,16.35c0-.29,0-.58,0-.86a1,1,0,0,1,.65-1.07Z"/><path class="cls-1" d="M16.8,27.08a3.5,3.5,0,0,1-3.54,3.45H3.54A3.5,3.5,0,0,1,0,27.08V21.74a3.5,3.5,0,0,1,3.54-3.45h9.72a3.49,3.49,0,0,1,3.54,3.45v5.34Z"/><path class="cls-1" d="M10.45,0h4.16c0,.26-.11.52-.16.77a1.27,1.27,0,0,0,0,.34,6.26,6.26,0,0,1-.26,2.58,14.64,14.64,0,0,1-.89,1.77c-.24.43-.5.84-.76,1.25a5.7,5.7,0,0,0-.37.92,12,12,0,0,1-2,3.45,3.49,3.49,0,0,1-.68.65c-.32.22-.6.24-.81,0a.7.7,0,0,1-.11-.88,9,9,0,0,1,.74-1.18,8.22,8.22,0,0,0,1.16-2.24,2.61,2.61,0,0,0,.13-1.38.77.77,0,0,1,0-.15.3.3,0,0,0-.25-.29l-2-.55A.29.29,0,0,0,8,5.2l-.81.92a.33.33,0,0,0-.1.25q0,.63,0,1.26a.36.36,0,0,0,.11.26c.36.44.72.89,1.09,1.33a.2.2,0,0,1-.12.08l-.34.1a5.8,5.8,0,0,0-.66.33L5.84,8.14a.26.26,0,0,1,0-.19c0-.88.07-1.77.1-2.66A.26.26,0,0,1,6,5.11l4.3-4.8A.63.63,0,0,0,10.45,0Z"/><path class="cls-1" d="M10.72,11.21a2,2,0,0,1,.12,1.45,2.09,2.09,0,0,1-.77,1.12.37.37,0,0,1-.23.07h-2a.32.32,0,0,1-.19,0,2.08,2.08,0,0,1,.59-3.69l.11,0-.28.49A1.24,1.24,0,0,0,8,11.8a1.08,1.08,0,0,0,1.47.54,3.17,3.17,0,0,0,1-.84Z"/><path class="cls-1" d="M8,6c0,.31,0,.59.07.87a.69.69,0,0,0,.2.48c.36.35.7.73,1.05,1.09.06.07.08.11,0,.19s-.21.3-.32.45-.07.08-.13,0L7.66,7.63a.2.2,0,0,1,0-.15V6.54a.24.24,0,0,1,.07-.18Z"/><path class="cls-1" d="M7.14,9.73A5.8,5.8,0,0,1,7.8,9.4l.34-.11a.15.15,0,0,0,.12-.07l.23.26a5,5,0,0,0-.62.18,2.35,2.35,0,0,0-.42.21c-.11.09-.18.07-.24,0Z"/></g></g></svg>