<?xml version="1.0" encoding="utf-8"?>
<!-- Generator: Adobe Illustrator 24.2.0, SVG Export Plug-In . SVG Version: 6.00 Build 0)  -->
<svg version="1.1" id="Layer_1" xmlns="http://www.w3.org/2000/svg" xmlns:xlink="http://www.w3.org/1999/xlink" x="0px" y="0px"
	 viewBox="0 0 15 17.3" style="enable-background:new 0 0 15 17.3;" xml:space="preserve">
<style type="text/css">
	.st0{fill:#84BD41;}
	.st1{display:none;}
	.st2{display:inline;}
	.st3{fill:#85BD41;}
	.st4{display:inline;fill:#84BD41;}
</style>
<g id="Layer_2_1_">
	<g id="Layer_1-2">
		<path class="st0" d="M15,13.7c0,1.1-1.2,2.4-2.2,3.2c-0.4,0.3-0.9,0.4-1.3,0.2c-0.1,0-0.2-0.1-0.3-0.2c-0.2-0.2-0.4-0.4-0.6-0.6
			c-0.8-0.7-1.4-1.6-1.6-2.7c0-0.9,0.7-1.7,1.6-1.8l0,0c0.6,0,1.1,0.3,1.4,0.8c0.1-0.2,0.2-0.3,0.4-0.5c0.3-0.2,0.6-0.4,1-0.4h0.1
			C14.4,12,15,12.8,15,13.7z"/>
		<path class="st0" d="M13,1.7c0.1-0.7-0.3-1.3-0.9-1.6c-0.2,0-0.5-0.1-0.8-0.1C8.1,0,4.9,0,1.7,0C0.8,0,0,0.7,0,1.5v0.1
			c0,4.7,0,9.4,0,14c0,0.9,0.6,1.6,1.5,1.7c0.1,0,0.1,0,0.2,0h8.2c-1.1-0.9-1.8-2.2-2-3.7c-0.1-1.6,1.1-2.9,2.7-3l0,0
			c0.7,0,1.4,0.3,1.9,0.8c0.2-0.2,0.3-0.3,0.5-0.4C13,8.7,13,3.6,13,1.7z M1.7,3.3C1.8,3,2.1,2.8,2.5,2.8C2.7,2.9,2.8,3,3,3.1
			c0.2,0.2,0.5,0.4,0.7,0.6l1.2-1.5l0.4-0.5C5.5,1.3,6,1.2,6.4,1.4C6.8,1.7,7,2.2,6.7,2.6c0,0.1-0.1,0.1-0.1,0.2
			C6,3.5,5.4,4.2,4.8,5c-0.5,0.6-1.4,0.7-2,0.2C2.7,5.1,2.7,5.1,2.6,5C2.3,4.7,2.1,4.5,1.8,4.2C1.6,3.9,1.5,3.6,1.7,3.3z M1.8,8
			C2.1,7.7,2.7,7.7,3,8l0,0l0.7,0.6l1.7-2c0.3-0.4,0.8-0.4,1.1-0.1c0.4,0.3,0.4,0.8,0.1,1.1l0,0C6.2,8.1,5.8,8.6,5.4,9
			C5.2,9.3,5,9.5,4.8,9.8c-0.5,0.6-1.3,0.8-2,0.3C2.7,10,2.6,10,2.6,9.9L1.9,9.1C1.5,8.8,1.5,8.3,1.8,8z M6.6,12.5l-1.2,1.4
			l-0.6,0.8c-0.5,0.6-1.3,0.8-2,0.3c-0.1-0.1-0.2-0.1-0.2-0.2L1.9,14c-0.4-0.3-0.5-0.8-0.2-1.1c0.3-0.4,0.8-0.5,1.1-0.2
			C2.9,12.8,3,12.8,3,12.9l0.7,0.6l1.6-2c0.2-0.3,0.6-0.5,1-0.3s0.6,0.6,0.5,1.1C6.7,12.3,6.7,12.4,6.6,12.5z M10.6,10.1H8.3
			c-0.4,0-0.8-0.4-0.8-0.8l0,0c0-0.4,0.4-0.8,0.8-0.8l0,0h2.4c0.4,0,0.8,0.3,0.8,0.8l0,0C11.4,9.7,11.1,10.1,10.6,10.1z M10.6,5.2
			H8.3c-0.4,0-0.8-0.4-0.8-0.8s0.4-0.8,0.8-0.8l0,0h2.3c0.4,0,0.8,0.4,0.8,0.8S11.1,5.2,10.6,5.2L10.6,5.2L10.6,5.2z"/>
	</g>
</g>
<g class="st1">
	<g class="st2">
		<path class="st3" d="M12.9,6c0.3,0.1,0.5,0.4,0.5,0.7c0,0.2,0,0.4,0,0.6c0,0.4-0.2,0.7-0.7,0.7C9.2,8,5.8,8,2.3,8
			C1.9,8,1.7,7.8,1.7,7.4c0-0.2,0-0.4,0-0.6c0-0.4,0.1-0.6,0.5-0.7C5.7,6,9.3,6,12.9,6z"/>
		<path class="st3" d="M13.4,14.9c0,1.3-1.1,2.4-2.5,2.4H4.1c-1.4,0-2.5-1.1-2.5-2.4v-3.7c0-1.3,1.1-2.4,2.5-2.4h6.8
			c1.4,0,2.5,1.1,2.5,2.4V14.9L13.4,14.9z"/>
	</g>
	<g class="st2">
		<path class="st3" d="M8.9-4c1,0,1.9,0,2.9,0c0,0.2-0.1,0.4-0.1,0.5s0,0.2,0,0.2c0,0.6,0,1.2-0.2,1.8c-0.2,0.4-0.4,0.8-0.6,1.2
			c-0.2,0.3-0.3,0.6-0.5,0.9c-0.1,0.2-0.2,0.4-0.3,0.6C9.8,2.2,9.3,3,8.7,3.7C8.6,3.9,8.4,4,8.2,4.2C8,4.3,7.8,4.3,7.7,4.2
			C7.5,4,7.5,3.8,7.6,3.6C7.7,3.3,7.9,3,8.1,2.8c0.4-0.5,0.6-1,0.8-1.6C9,0.9,9.1,0.6,9,0.2V0.1C9,0,8.9,0,8.8-0.1
			C8.4-0.2,7.9-0.3,7.5-0.5c-0.1,0-0.2,0-0.2,0.1C7-0.2,6.8,0,6.6,0.3c0,0-0.1,0.1-0.1,0.2c0,0.3,0,0.6,0,0.9c0,0.1,0,0.1,0.1,0.2
			c0.3,0.3,0.5,0.6,0.8,0.9c0,0,0,0-0.1,0.1c-0.1,0-0.2,0-0.2,0.1c-0.2-0.1-0.3,0-0.5,0.1C6.3,2.4,6,2,5.7,1.7V1.6
			c0-0.6,0-1.2,0.1-1.9c0-0.1,0-0.1,0.1-0.1c1-1.1,2-2.2,3-3.3C8.9-3.9,8.9-3.9,8.9-4z"/>
		<path class="st3" d="M9.1,3.8c0.2,0.3,0.2,0.7,0.1,1C9.1,5.1,8.9,5.4,8.7,5.6c0,0-0.1,0.1-0.2,0.1c-0.5,0-0.9,0-1.4,0H7
			C6.5,5.3,6.3,4.8,6.4,4.2c0.1-0.6,0.4-1,1-1.2c0,0,0,0,0.1,0C7.4,3.1,7.3,3.3,7.3,3.4C7.1,3.6,7.1,3.9,7.2,4.2
			c0.2,0.4,0.6,0.6,1,0.4C8.5,4.5,8.7,4.2,9,4C9,3.9,9.1,3.9,9.1,3.8z"/>
		<path class="st3" d="M7.2,0.2c0,0.2,0,0.4,0.1,0.6c0,0.1,0,0.2,0.1,0.3c0.2,0.2,0.5,0.5,0.7,0.8c0,0,0.1,0.1,0,0.1
			c0,0.1-0.1,0.2-0.2,0.3c0,0-0.1,0.1-0.1,0C7.6,2,7.3,1.7,7,1.3V1.2C7,1,7,0.8,7,0.6c0-0.1,0-0.1,0-0.1C7.1,0.4,7.1,0.3,7.2,0.2z"
			/>
		<path class="st3" d="M6.6,2.8c0.2-0.1,0.3-0.2,0.5-0.2c0.1,0,0.2-0.1,0.2-0.1s0.1,0,0.1-0.1c0.1,0.1,0.1,0.1,0.2,0.2
			c-0.2,0-0.3,0.1-0.4,0.1C7,2.8,6.9,2.8,6.9,2.9C6.8,2.9,6.7,2.9,6.6,2.8C6.7,2.8,6.7,2.8,6.6,2.8z"/>
	</g>
</g>
<g class="st1">
	<path class="st4" d="M11.8,0.9C12,1,12.2,1.2,12.2,1.5c0,0.1-0.1,0.3-0.1,0.3c-0.6,0.7-1.1,1.5-1.5,2.3c0,0.1-0.1,0.1-0.2,0.1
		c-2.1,0-4.1,0-6.2,0C4.1,4.3,4,4.2,4,4.1C3.6,3.4,3.1,2.6,2.6,1.9c-0.3-0.4-0.3-0.7,0.2-1c0.1,0,0.2,0,0.3,0C3.2,1,3.3,1.1,3.4,1.2
		c0.4,0.3,0.9,0.3,1.3,0C4.7,1.1,4.9,1,5,0.9c0.1,0,0.1,0,0.2,0C5.3,1,5.4,1.1,5.5,1.1c0.4,0.3,0.9,0.3,1.3,0C6.9,1.1,7,1,7.1,0.9
		c0.1,0,0.2,0,0.3,0C7.5,1,7.6,1.1,7.7,1.2c0.4,0.3,0.9,0.3,1.3,0C9.1,1.1,9.2,1,9.4,0.9c0.1,0,0.1,0,0.2,0C9.7,1,9.8,1.1,9.9,1.1
		c0.3,0.2,0.6,0.3,0.9,0.2c0.3-0.1,0.5-0.3,0.7-0.4C11.6,0.9,11.7,0.9,11.8,0.9z"/>
	<g class="st2">
		<path class="st0" d="M14.5,14c-0.1-0.1-0.2-0.1-0.2-0.3c0-0.9-0.1-1.7-0.4-2.5c-0.3-0.9-0.8-1.8-1.3-2.7c-0.7-1.1-1.4-2.2-2-3.3
			c0,0-0.1-0.1-0.2-0.1c-2.1,0-4.2,0-6.4,0c-0.1,0-0.2,0-0.2,0.1c-0.2,0.3-0.3,0.7-0.5,1c-0.6,1-1.2,2-1.8,3
			c-0.7,1.2-1.2,2.4-1.3,3.8c-0.8,0.3-1.3,1.1-1.3,2c0,1.2,1,2.2,2.2,2.2c0.2,0,0.4,0,0.6-0.1c4.1,0,8.3,0,12.4,0h0.1
			c0.7-0.2,1.2-0.7,1.3-1.4C15.5,14.9,15.2,14.3,14.5,14z M5,12.8H3.9c-0.4,0-0.5-0.2-0.5-0.3c0-0.2,0-0.3,0.1-0.5s0.1-0.3,0.3-0.5
			c0.1-0.2,0.3-0.3,0.5-0.5c0.1-0.1,0.2-0.2,0.3-0.3c0.1-0.1,0.1-0.2,0.2-0.2c0-0.1,0.1-0.1,0.1-0.2c0-0.1,0-0.2,0-0.2
			s0-0.1-0.2-0.1c-0.1,0-0.1,0-0.1,0.1s-0.1,0.2-0.1,0.3c-0.1,0.1-0.2,0.1-0.3,0.1c-0.1,0-0.3,0-0.3-0.1c-0.1-0.1-0.1-0.2-0.1-0.4
			C3.9,9.7,4,9.5,4.2,9.4C4,9.2,4.2,9.1,4.5,9.1c0.2,0,0.4,0,0.6,0.1s0.3,0.2,0.4,0.4s0.1,0.4,0.1,0.6c0,0.2,0,0.3-0.1,0.5
			c-0.1,0.1-0.2,0.3-0.3,0.4c-0.1,0.1-0.2,0.2-0.4,0.4c-0.1,0.1-0.2,0.3-0.3,0.4h0.6c0.3,0,0.5,0.2,0.5,0.4
			C5.5,12.6,5.4,12.8,5,12.8z M6.8,13.1c-0.1,0.1-0.2,0.3-0.4,0.4c-0.1,0.1-0.2,0.1-0.3,0.1c0,0,0,0-0.1,0s-0.2-0.1-0.3-0.2
			c-0.1-0.1,0-0.2,0.1-0.3c0,0,0.1-0.1,0.2-0.2c0,0,0,0,0.1,0c-0.1,0-0.2-0.1-0.3-0.1c-0.1-0.1-0.2-0.2-0.2-0.4s0.1-0.3,0.2-0.4
			c0.1-0.1,0.2-0.1,0.4-0.1c0.2,0,0.4,0.1,0.5,0.2c0.1,0.2,0.2,0.3,0.2,0.6C6.9,12.8,6.9,13,6.8,13.1z M8.9,12.5
			c-0.2,0.2-0.5,0.3-0.9,0.3c-0.2,0-0.3,0-0.5-0.1c-0.1-0.1-0.3-0.1-0.4-0.2C7,12.3,7,12.2,7,12.1c0-0.1,0-0.2,0.2-0.3
			c0.1-0.1,0.2-0.1,0.4-0.1c0.1,0,0.2,0.1,0.3,0.1H8h0.1c0.2,0,0.2-0.1,0.2-0.1c0.1-0.1,0.1-0.2,0.1-0.3c0-0.2,0-0.3-0.1-0.3L8.2,11
			H8.1C8,11,8,11.1,7.9,11.1c-0.1,0.1-0.2,0.1-0.3,0.1c-0.3,0-0.5-0.2-0.5-0.5v-1c0-0.3,0.2-0.5,0.5-0.5h1.1c0.3,0,0.5,0.2,0.5,0.4
			C9.2,9.9,9,10,8.7,10H8v0.3h0.1c0.2,0,0.4,0,0.6,0.1c0.2,0.1,0.3,0.2,0.4,0.4c0.1,0.2,0.1,0.4,0.1,0.7C9.2,12,9.1,12.3,8.9,12.5z
			 M9.5,9.8c0-0.3,0.2-0.5,0.5-0.5s0.5,0.2,0.5,0.5s-0.2,0.5-0.5,0.5C9.8,10.3,9.5,10.1,9.5,9.8z M10,11.7C10,11.7,9.9,11.7,10,11.7
			c-0.1,0-0.1,0-0.2,0c-0.1-0.1-0.1-0.2,0-0.2c0.2-0.3,0.5-0.6,0.7-1c0.2-0.3,0.5-0.6,0.7-0.9l0.1-0.1c0.1,0,0.1,0,0.2,0.1
			c0,0.1,0,0.1,0,0.2c-0.1,0.2-0.2,0.3-0.4,0.5C10.7,10.8,10.4,11.3,10,11.7C10.1,11.6,10,11.6,10,11.7z M11.5,11.7L11.5,11.7
			c-0.1,0-0.1,0-0.2,0c-0.1,0-0.2-0.1-0.3-0.2c-0.1-0.1-0.1-0.4-0.1-0.5c0.1-0.2,0.3-0.3,0.5-0.2c0.2,0,0.3,0.2,0.4,0.4
			C11.9,11.4,11.7,11.6,11.5,11.7z"/>
		<circle class="st0" cx="0.6" cy="14.9" r="2.3"/>
		<circle class="st0" cx="14" cy="14.9" r="2.3"/>
	</g>
</g>
</svg>
