<?xml version="1.0" encoding="utf-8"?>
<!-- Generator: Adobe Illustrator 24.2.0, SVG Export Plug-In . SVG Version: 6.00 Build 0)  -->
<svg version="1.1" id="Layer_1" xmlns="http://www.w3.org/2000/svg" xmlns:xlink="http://www.w3.org/1999/xlink" x="0px" y="0px"
	 viewBox="0 0 11.8 21.3" style="enable-background:new 0 0 11.8 21.3;" xml:space="preserve">
<style type="text/css">
	.st0{display:none;}
	.st1{display:inline;}
	.st2{fill:#84BD41;}
	.st3{fill:#85BD41;}
	.st4{display:inline;fill:#84BD41;}
</style>
<g id="Layer_2_1_" class="st0">
	<g id="Layer_1-2" class="st1">
		<path class="st2" d="M13.4,17.7c0,1.1-1.2,2.4-2.2,3.2c-0.4,0.3-0.9,0.4-1.3,0.2c-0.1,0-0.2-0.1-0.3-0.2c-0.2-0.2-0.4-0.4-0.6-0.6
			c-0.8-0.7-1.4-1.6-1.6-2.7c0-0.9,0.7-1.7,1.6-1.8l0,0c0.6,0,1.1,0.3,1.4,0.8c0.1-0.2,0.2-0.3,0.4-0.5c0.3-0.2,0.6-0.4,1-0.4h0.1
			C12.8,16,13.4,16.8,13.4,17.7z"/>
		<path class="st2" d="M11.4,5.7c0.1-0.7-0.3-1.3-0.9-1.6C10.3,4.1,10,4,9.7,4C6.5,4,3.3,4,0.1,4c-0.9,0-1.7,0.7-1.7,1.5v0.1
			c0,4.7,0,9.4,0,14c0,0.9,0.6,1.6,1.5,1.7c0.1,0,0.1,0,0.2,0h8.2c-1.1-0.9-1.8-2.2-2-3.7c-0.1-1.6,1.1-2.9,2.7-3l0,0
			c0.7,0,1.4,0.3,1.9,0.8c0.2-0.2,0.3-0.3,0.5-0.4C11.4,12.7,11.4,7.6,11.4,5.7z M0.1,7.3C0.2,7,0.5,6.8,0.9,6.8
			C1.1,6.9,1.2,7,1.4,7.1c0.2,0.2,0.5,0.4,0.7,0.6l1.2-1.5l0.4-0.5c0.2-0.4,0.7-0.5,1.1-0.3c0.4,0.3,0.6,0.8,0.3,1.2
			C5.1,6.7,5,6.7,5,6.8C4.4,7.5,3.8,8.2,3.2,9c-0.5,0.6-1.4,0.7-2,0.2C1.1,9.1,1.1,9.1,1,9C0.7,8.7,0.5,8.5,0.2,8.2
			C0,7.9-0.1,7.6,0.1,7.3z M0.2,12c0.3-0.3,0.9-0.3,1.2,0l0,0l0.7,0.6l1.7-2c0.3-0.4,0.8-0.4,1.1-0.1c0.4,0.3,0.4,0.8,0.1,1.1l0,0
			c-0.4,0.5-0.8,1-1.2,1.4c-0.2,0.3-0.4,0.5-0.6,0.8c-0.5,0.6-1.3,0.8-2,0.3C1.1,14,1,14,1,13.9l-0.7-0.8C-0.1,12.8-0.1,12.3,0.2,12
			z M5,16.5l-1.2,1.4l-0.6,0.8c-0.5,0.6-1.3,0.8-2,0.3C1.1,18.9,1,18.9,1,18.8L0.3,18c-0.4-0.3-0.5-0.8-0.2-1.1
			c0.3-0.4,0.8-0.5,1.1-0.2c0.1,0.1,0.2,0.1,0.2,0.2l0.7,0.6l1.6-2c0.2-0.3,0.6-0.5,1-0.3s0.6,0.6,0.5,1.1C5.1,16.3,5.1,16.4,5,16.5
			z M9,14.1H6.7c-0.4,0-0.8-0.4-0.8-0.8l0,0c0-0.4,0.4-0.8,0.8-0.8l0,0h2.4c0.4,0,0.8,0.3,0.8,0.8l0,0C9.8,13.7,9.5,14.1,9,14.1z
			 M9,9.2H6.7c-0.4,0-0.8-0.4-0.8-0.8c0-0.4,0.4-0.8,0.8-0.8l0,0H9c0.4,0,0.8,0.4,0.8,0.8S9.5,9.2,9,9.2L9,9.2L9,9.2z"/>
	</g>
</g>
<g>
	<g>
		<path class="st3" d="M11.3,10c0.3,0.1,0.5,0.4,0.5,0.7c0,0.2,0,0.4,0,0.6c0,0.4-0.2,0.7-0.7,0.7c-3.5,0-6.9,0-10.4,0
			c-0.4,0-0.6-0.2-0.6-0.6c0-0.2,0-0.4,0-0.6c0-0.4,0.1-0.6,0.5-0.7C4.1,10,7.7,10,11.3,10z"/>
		<path class="st3" d="M11.8,18.9c0,1.3-1.1,2.4-2.5,2.4H2.5c-1.4,0-2.5-1.1-2.5-2.4v-3.7c0-1.3,1.1-2.4,2.5-2.4h6.8
			c1.4,0,2.5,1.1,2.5,2.4V18.9L11.8,18.9z"/>
	</g>
	<g>
		<path class="st3" d="M7.3,0c1,0,1.9,0,2.9,0c0,0.2-0.1,0.4-0.1,0.5s0,0.2,0,0.2c0,0.6,0,1.2-0.2,1.8C9.7,2.9,9.5,3.3,9.3,3.7
			C9.1,4,9,4.3,8.8,4.6C8.7,4.8,8.6,5,8.5,5.2C8.2,6.2,7.7,7,7.1,7.7C7,7.9,6.8,8,6.6,8.2c-0.2,0.1-0.4,0.1-0.5,0
			C5.9,8,5.9,7.8,6,7.6C6.1,7.3,6.3,7,6.5,6.8c0.4-0.5,0.6-1,0.8-1.6c0.1-0.3,0.2-0.6,0.1-1V4.1C7.4,4,7.3,4,7.2,3.9
			C6.8,3.8,6.3,3.7,5.9,3.5c-0.1,0-0.2,0-0.2,0.1C5.4,3.8,5.2,4,5,4.3c0,0-0.1,0.1-0.1,0.2c0,0.3,0,0.6,0,0.9c0,0.1,0,0.1,0.1,0.2
			c0.3,0.3,0.5,0.6,0.8,0.9c0,0,0,0-0.1,0.1c-0.1,0-0.2,0-0.2,0.1C5.3,6.6,5.2,6.7,5,6.8C4.7,6.4,4.4,6,4.1,5.7V5.6
			c0-0.6,0-1.2,0.1-1.9c0-0.1,0-0.1,0.1-0.1c1-1.1,2-2.2,3-3.3C7.3,0.1,7.3,0.1,7.3,0z"/>
		<path class="st3" d="M7.5,7.8c0.2,0.3,0.2,0.7,0.1,1C7.5,9.1,7.3,9.4,7.1,9.6c0,0-0.1,0.1-0.2,0.1c-0.5,0-0.9,0-1.4,0H5.4
			C4.9,9.3,4.7,8.8,4.8,8.2s0.4-1,1-1.2c0,0,0,0,0.1,0C5.8,7.1,5.7,7.3,5.7,7.4C5.5,7.6,5.5,7.9,5.6,8.2c0.2,0.4,0.6,0.6,1,0.4
			C6.9,8.5,7.1,8.2,7.4,8C7.4,7.9,7.5,7.9,7.5,7.8z"/>
		<path class="st3" d="M5.6,4.2c0,0.2,0,0.4,0.1,0.6c0,0.1,0,0.2,0.1,0.3C6,5.3,6.3,5.6,6.5,5.9c0,0,0.1,0.1,0,0.1
			c0,0.1-0.1,0.2-0.2,0.3c0,0-0.1,0.1-0.1,0C6,6,5.7,5.7,5.4,5.3V5.2c0-0.2,0-0.4,0-0.6c0-0.1,0-0.1,0-0.1C5.5,4.4,5.5,4.3,5.6,4.2z
			"/>
		<path class="st3" d="M5,6.8c0.2-0.1,0.3-0.2,0.5-0.2c0.1,0,0.2-0.1,0.2-0.1s0.1,0,0.1-0.1C5.9,6.5,5.9,6.5,6,6.6
			c-0.2,0-0.3,0.1-0.4,0.1C5.4,6.8,5.3,6.8,5.3,6.9C5.2,6.9,5.1,6.9,5,6.8C5.1,6.8,5.1,6.8,5,6.8z"/>
	</g>
</g>
<g class="st0">
	<path class="st4" d="M10.2,4.9c0.2,0.1,0.4,0.3,0.4,0.6c0,0.1-0.1,0.3-0.1,0.3C9.9,6.5,9.4,7.3,9,8.1c0,0.1-0.1,0.1-0.2,0.1
		c-2.1,0-4.1,0-6.2,0c-0.1,0.1-0.2,0-0.2-0.1C2,7.4,1.5,6.6,1,5.9c-0.3-0.4-0.3-0.7,0.2-1c0.1,0,0.2,0,0.3,0C1.6,5,1.7,5.1,1.8,5.2
		c0.4,0.3,0.9,0.3,1.3,0c0-0.1,0.2-0.2,0.3-0.3c0.1,0,0.1,0,0.2,0C3.7,5,3.8,5.1,3.9,5.1c0.4,0.3,0.9,0.3,1.3,0
		c0.1,0,0.2-0.1,0.3-0.2c0.1,0,0.2,0,0.3,0C5.9,5,6,5.1,6.1,5.2c0.4,0.3,0.9,0.3,1.3,0C7.5,5.1,7.6,5,7.8,4.9c0.1,0,0.1,0,0.2,0
		C8.1,5,8.2,5.1,8.3,5.1c0.3,0.2,0.6,0.3,0.9,0.2C9.5,5.2,9.7,5,9.9,4.9C10,4.9,10.1,4.9,10.2,4.9z"/>
	<g class="st1">
		<path class="st2" d="M12.9,18c-0.1-0.1-0.2-0.1-0.2-0.3c0-0.9-0.1-1.7-0.4-2.5c-0.3-0.9-0.8-1.8-1.3-2.7c-0.7-1.1-1.4-2.2-2-3.3
			c0,0-0.1-0.1-0.2-0.1c-2.1,0-4.2,0-6.4,0c-0.1,0-0.2,0-0.2,0.1c-0.2,0.3-0.3,0.7-0.5,1c-0.6,1-1.2,2-1.8,3
			c-0.7,1.2-1.2,2.4-1.3,3.8c-0.8,0.3-1.3,1.1-1.3,2c0,1.2,1,2.2,2.2,2.2c0.2,0,0.4,0,0.6-0.1c4.1,0,8.3,0,12.4,0h0.1
			c0.7-0.2,1.2-0.7,1.3-1.4C13.9,18.9,13.6,18.3,12.9,18z M3.4,16.8H2.3c-0.4,0-0.5-0.2-0.5-0.3c0-0.2,0-0.3,0.1-0.5
			C2,15.8,2,15.7,2.2,15.5c0.1-0.2,0.3-0.3,0.5-0.5c0.1-0.1,0.2-0.2,0.3-0.3c0.1-0.1,0.1-0.2,0.2-0.2c0-0.1,0.1-0.1,0.1-0.2
			c0-0.1,0-0.2,0-0.2s0-0.1-0.2-0.1C3,14,3,14,3,14.1s-0.1,0.2-0.1,0.3c-0.1,0.1-0.2,0.1-0.3,0.1c-0.1,0-0.3,0-0.3-0.1
			c-0.1-0.1-0.1-0.2-0.1-0.4c0.1-0.3,0.2-0.5,0.4-0.6c-0.2-0.2,0-0.3,0.3-0.3c0.2,0,0.4,0,0.6,0.1s0.3,0.2,0.4,0.4S4,14,4,14.2
			c0,0.2,0,0.3-0.1,0.5c-0.1,0.1-0.2,0.3-0.3,0.4c-0.1,0.1-0.2,0.2-0.4,0.4c-0.1,0.1-0.2,0.3-0.3,0.4h0.6c0.3,0,0.5,0.2,0.5,0.4
			C3.9,16.6,3.8,16.8,3.4,16.8z M5.2,17.1c-0.1,0.1-0.2,0.3-0.4,0.4c-0.1,0.1-0.2,0.1-0.3,0.1c0,0,0,0-0.1,0s-0.2-0.1-0.3-0.2
			c-0.1-0.1,0-0.2,0.1-0.3c0,0,0.1-0.1,0.2-0.2c0,0,0,0,0.1,0c-0.1,0-0.2-0.1-0.3-0.1C4.1,16.7,4,16.6,4,16.4c0-0.2,0.1-0.3,0.2-0.4
			c0.1-0.1,0.2-0.1,0.4-0.1c0.2,0,0.4,0.1,0.5,0.2c0.1,0.2,0.2,0.3,0.2,0.6C5.3,16.8,5.3,17,5.2,17.1z M7.3,16.5
			c-0.2,0.2-0.5,0.3-0.9,0.3c-0.2,0-0.3,0-0.5-0.1c-0.1-0.1-0.3-0.1-0.4-0.2c-0.1-0.2-0.1-0.3-0.1-0.4s0-0.2,0.2-0.3
			c0.1-0.1,0.2-0.1,0.4-0.1c0.1,0,0.2,0.1,0.3,0.1h0.1h0.1c0.2,0,0.2-0.1,0.2-0.1c0.1-0.1,0.1-0.2,0.1-0.3c0-0.2,0-0.3-0.1-0.3
			L6.6,15H6.5c-0.1,0-0.1,0.1-0.2,0.1c-0.1,0.1-0.2,0.1-0.3,0.1c-0.3,0-0.5-0.2-0.5-0.5v-1c0-0.3,0.2-0.5,0.5-0.5h1.1
			c0.3,0,0.5,0.2,0.5,0.4c0,0.3-0.2,0.4-0.5,0.4H6.4v0.3h0.1c0.2,0,0.4,0,0.6,0.1c0.2,0.1,0.3,0.2,0.4,0.4c0.1,0.2,0.1,0.4,0.1,0.7
			C7.6,16,7.5,16.3,7.3,16.5z M7.9,13.8c0-0.3,0.2-0.5,0.5-0.5c0.3,0,0.5,0.2,0.5,0.5s-0.2,0.5-0.5,0.5C8.2,14.3,7.9,14.1,7.9,13.8z
			 M8.4,15.7C8.4,15.7,8.3,15.7,8.4,15.7c-0.1,0-0.1,0-0.2,0c-0.1-0.1-0.1-0.2,0-0.2c0.2-0.3,0.5-0.6,0.7-1c0.2-0.3,0.5-0.6,0.7-0.9
			l0.1-0.1c0.1,0,0.1,0,0.2,0.1c0,0.1,0,0.1,0,0.2c-0.1,0.2-0.2,0.3-0.4,0.5C9.1,14.8,8.8,15.3,8.4,15.7C8.5,15.6,8.4,15.6,8.4,15.7
			z M9.9,15.7L9.9,15.7c-0.1,0-0.1,0-0.2,0c-0.1,0-0.2-0.1-0.3-0.2c-0.1-0.1-0.1-0.4-0.1-0.5c0.1-0.2,0.3-0.3,0.5-0.2
			c0.2,0,0.3,0.2,0.4,0.4C10.3,15.4,10.1,15.6,9.9,15.7z"/>
		<circle class="st2" cx="-1" cy="18.9" r="2.3"/>
		<circle class="st2" cx="12.4" cy="18.9" r="2.3"/>
	</g>
</g>
</svg>
